<svg xmlns="http://www.w3.org/2000/svg" viewBox="0 0 64 64">
  <title>QS-PodScript</title>
  <!-- letters: Oswald SemiBold (SIL Open Font License, see fonts/OFL-Oswald.txt) as outlines -->
  <rect width="64" height="64" rx="14" fill="#B3191D"/>
  <path fill="#FFFFFF" d="M20 11h24a9 9 0 0 1 9 9v15a9 9 0 0 1-9 9H31l-12.5 10.5 2.2-10.5H20a9 9 0 0 1-9-9V20a9 9 0 0 1 9-9z"/>
  <path fill="#121212" transform="translate(13.448 36.196) scale(0.02147 -0.02147)" d="M466 -160Q443 -149 413.0 -126.0Q383 -103 354.0 -72.5Q325 -42 305 -10Q301 -11 296.5 -11.0Q292 -11 287 -11Q198 -11 146.0 21.0Q94 53 71.5 112.5Q49 172 49 255V557Q49 640 71.5 699.0Q94 758 146.0 789.0Q198 820 287 820Q377 820 429.5 788.5Q482 757 504.5 698.5Q527 640 527 557V255Q527 197 516.5 150.5Q506 104 482.0 70.0Q458 36 418 16Q431 2 445.0 -12.0Q459 -26 473.0 -38.0Q487 -50 500 -58ZM287 108Q319 108 334.0 122.5Q349 137 354.0 161.5Q359 186 359 214V597Q359 625 354.0 649.0Q349 673 334.0 687.5Q319 702 287 702Q256 702 241.0 687.5Q226 673 221.5 649.0Q217 625 217 597V214Q217 186 221.5 161.5Q226 137 241.0 122.5Q256 108 287 108Z"/>
  <path fill="#121212" transform="translate(26.567 36.196) scale(0.02147 -0.02147)" d="M271 -11Q196 -11 146.0 16.5Q96 44 70.5 99.5Q45 155 41 241L183 265Q185 215 193.5 181.5Q202 148 219.5 131.5Q237 115 263 115Q295 115 306.5 135.0Q318 155 318 181Q318 232 293.5 266.5Q269 301 229 336L145 409Q100 447 71.5 495.0Q43 543 43 613Q43 713 101.5 766.5Q160 820 262 820Q323 820 362.0 800.0Q401 780 422.5 746.5Q444 713 452.5 673.5Q461 634 463 595L322 574Q320 611 315.5 639.0Q311 667 297.5 683.0Q284 699 257 699Q228 699 214.0 677.5Q200 656 200 630Q200 587 219.5 559.5Q239 532 273 502L355 430Q406 386 442.5 329.5Q479 273 479 190Q479 133 453.0 87.0Q427 41 380.5 15.0Q334 -11 271 -11Z"/>
  <path fill="#B3191D" transform="translate(38.163 36.196) scale(0.02147 -0.02147)" d="M61 0V810H318Q391 810 437.0 782.5Q483 755 505.5 703.0Q528 651 528 577Q528 490 498.5 441.0Q469 392 418.0 371.5Q367 351 301 351H226V0ZM226 467H284Q320 467 339.5 478.5Q359 490 366.0 515.0Q373 540 373 579Q373 616 367.5 641.0Q362 666 343.0 680.0Q324 694 283 694H226Z"/>
</svg>
